<svg version="1.1" id="Layer_1" xmlns="http://www.w3.org/2000/svg" xmlns:xlink="http://www.w3.org/1999/xlink" x="0px" y="0px"
	 width="100%" viewBox="0 0 1024 1024" enable-background="new 0 0 1024 1024" xml:space="preserve">
<path fill="#000000" opacity="1.000000" stroke="none" 
	d="
M586.074219,436.942688 
	C583.727966,437.465027 582.663025,439.463715 581.270264,441.093964 
	C569.664246,454.678772 556.655762,466.378693 539.478271,472.606842 
	C530.813293,475.748535 521.886719,477.538361 512.736023,478.297974 
	C510.276611,478.502167 507.836975,478.644165 504.572754,480.068695 
	C509.096771,481.470490 512.806763,482.617889 516.515381,483.769562 
	C531.989502,488.574951 543.733948,498.394623 552.669800,511.551849 
	C586.924133,561.988220 620.991455,612.551636 655.175232,663.035950 
	C663.681335,675.598206 672.277710,688.061462 684.941467,697.063843 
	C705.904541,711.965881 729.326843,715.826111 754.316406,713.104858 
	C755.307617,712.996887 756.295715,712.801331 757.288147,712.780090 
	C758.516235,712.753845 759.693054,713.049011 759.911316,714.508484 
	C760.142334,716.052795 759.498840,717.154053 757.848938,717.317322 
	C754.537476,717.645020 751.218323,718.131470 747.901794,718.136047 
	C715.739563,718.180359 683.577026,718.088257 651.414734,718.136597 
	C624.565491,718.177002 605.542419,705.340759 591.342651,683.230774 
	C572.168579,653.375549 551.834167,624.285339 531.663879,595.090576 
	C511.215515,565.493286 491.150513,535.631470 470.785309,505.976349 
	C464.349274,496.604401 457.318970,487.700134 446.702789,482.555725 
	C444.773956,481.620972 442.887512,480.553070 440.611877,480.929962 
	C438.782318,482.964539 439.350861,485.406403 439.348785,487.663879 
	C439.291992,549.323181 439.585907,610.985046 439.092529,672.640564 
	C438.902435,696.391846 452.449036,707.318420 473.074432,710.726562 
	C478.182953,711.570740 483.332092,711.828857 488.498749,711.941284 
	C490.717133,711.989502 493.146637,712.104126 492.984528,715.247925 
	C492.839294,718.064697 490.494019,718.042236 488.520447,718.059692 
	C477.022552,718.161499 465.523895,718.235291 454.025574,718.226196 
	C413.363953,718.194092 372.702271,718.133850 332.040710,718.047729 
	C329.384888,718.042114 326.724854,717.782715 324.076019,717.540222 
	C322.531921,717.398865 321.047211,717.001465 321.013153,714.978271 
	C320.975433,712.735046 322.606171,712.196411 324.313110,712.002686 
	C328.107117,711.572144 331.918060,711.560486 335.709534,710.787537 
	C354.289429,706.999817 363.882050,697.126953 366.859558,678.503662 
	C367.217926,676.262329 367.865356,674.067139 369.209167,671.463684 
	C372.609344,677.744263 378.625275,681.231018 382.709839,686.577026 
	C387.752655,693.177307 391.392914,693.683594 397.700836,688.422791 
	C400.626648,685.982605 402.960388,685.884277 406.165527,687.906067 
	C411.496368,691.268799 416.832977,690.878296 421.914307,686.878601 
	C432.488770,678.555054 435.671478,667.512634 431.829956,655.196716 
	C427.753693,642.128235 424.784698,628.839966 421.592316,615.579407 
	C421.085754,613.475220 420.257385,611.344910 420.277252,609.233337 
	C420.533020,582.060059 412.624512,555.906372 410.403290,529.061279 
	C409.773529,521.450623 409.597046,513.683350 410.356171,506.102417 
	C411.802246,491.661438 409.661499,477.988739 404.502869,464.493469 
	C399.746002,452.049225 395.697083,439.334076 391.349823,426.733643 
	C387.865448,416.634216 384.154419,415.586914 375.987122,422.434875 
	C374.470459,423.706573 372.985046,425.015533 371.351990,426.421997 
	C368.207916,424.169861 368.165802,420.795593 368.087677,417.836670 
	C367.516022,396.190613 366.863678,374.553650 367.332001,352.880463 
	C367.900574,326.567047 368.483124,300.211548 366.591003,273.932129 
	C365.149902,253.916702 350.580505,241.440155 328.604919,240.255814 
	C326.361908,240.134949 323.616577,240.959305 322.058746,238.149185 
	C323.766266,236.040726 325.910156,236.699417 327.769440,236.698715 
	C383.762634,236.677872 439.765900,236.062439 495.745758,236.936707 
	C538.345581,237.602036 571.764587,255.771896 592.747192,293.983124 
	C601.364502,309.675964 605.793945,326.731384 607.136597,344.487305 
	C608.561523,363.331482 607.674255,382.087952 602.238098,400.354156 
	C599.336243,410.104584 595.783997,419.628967 590.117310,428.193268 
	C588.888855,430.049805 587.971252,431.942688 587.822754,434.795380 
	C587.095642,435.899628 586.584900,436.421173 586.074219,436.942688 
M498.129028,249.340240 
	C493.466797,246.346313 488.425201,244.378937 483.054901,242.917557 
	C471.017914,239.641998 458.777588,239.114487 446.425171,239.297836 
	C439.337646,239.403030 439.321533,239.316025 439.321899,246.545120 
	C439.325165,311.009766 439.334167,375.474426 439.341309,439.939087 
	C439.342529,450.933014 439.404114,461.927460 439.306274,472.920502 
	C439.276886,476.218872 440.267059,477.815643 443.894287,477.677887 
	C449.715637,477.456757 455.572723,477.955017 461.378387,477.582672 
	C486.023010,476.002106 505.469330,465.683044 517.313660,443.258362 
	C523.958191,430.678436 526.689453,416.988617 527.650757,402.934814 
	C529.506042,375.809662 527.908997,348.667480 527.813232,321.532898 
	C527.784485,313.376099 527.192993,305.232208 525.667297,297.217468 
	C522.078613,278.365631 514.581116,261.668060 498.129028,249.340240 
z"/>
<path fill="#000000" opacity="1.000000" stroke="none" 
	d="
M586.040649,437.330139 
	C586.584900,436.421173 587.095642,435.899628 587.805420,435.187225 
	C590.460327,434.588928 591.411926,432.571411 592.611633,430.770721 
	C607.844299,407.907104 613.332764,382.403534 613.045593,355.344147 
	C612.753601,327.839142 605.463379,302.421204 589.671570,279.770996 
	C575.698792,259.729797 557.554199,245.296371 533.225159,239.706604 
	C531.936096,239.410431 530.674255,238.988815 529.411072,238.589905 
	C528.951111,238.444626 528.524170,238.195099 528.082153,237.993118 
	C528.233826,237.597900 528.385498,237.202698 528.537109,236.807480 
	C537.075928,236.807480 545.637024,236.410461 554.148865,236.889359 
	C572.389832,237.915634 590.141174,241.415863 606.695557,249.514175 
	C634.908691,263.315948 655.697266,284.158325 666.630188,313.987244 
	C676.432678,340.732086 677.804626,368.139618 669.597900,395.318726 
	C659.919800,427.371063 639.532166,450.968628 608.910278,465.099060 
	C586.479736,475.449615 562.569458,477.840149 538.198669,477.177002 
	C537.588623,477.160370 536.986145,476.863434 536.363403,476.692657 
	C536.535278,474.634918 538.150696,474.683685 539.311951,474.404175 
	C558.265320,469.841797 571.489929,457.132690 583.821472,443.160248 
	C585.162903,441.640320 586.052185,439.842041 586.040649,437.330139 
z"/>
<path fill="#000000" opacity="1.000000" stroke="none" 
	d="
M674.019897,287.280273 
	C656.421448,279.055298 652.595581,263.152618 657.228882,246.337692 
	C661.872437,229.485748 676.777832,220.313568 693.889954,222.526688 
	C708.400146,224.403290 721.055542,235.547180 724.547180,249.522263 
	C727.796509,262.527557 722.568359,276.169373 710.071228,284.524994 
	C698.947021,291.962677 686.766785,292.475861 674.019897,287.280273 
z"/>
<path fill="#000000" opacity="1.000000" stroke="none" 
	d="
M616.253174,763.432251 
	C621.223633,755.931885 626.914490,753.798706 633.793823,756.538330 
	C637.574463,758.043945 640.162048,760.550293 639.501404,764.814270 
	C639.040588,767.788391 636.365356,768.615784 633.688904,768.244324 
	C629.363342,767.643921 627.989075,764.729797 628.391541,760.672180 
	C628.418518,760.400024 628.127197,760.096313 627.806763,759.450073 
	C623.575378,760.821960 623.966431,764.644409 623.417480,767.791321 
	C621.684448,777.726746 631.376831,771.341858 634.261658,775.222473 
	C633.019836,778.195068 630.366211,777.306152 628.348145,777.231018 
	C624.730042,777.096313 623.282288,778.212830 623.539795,782.114319 
	C623.900330,787.578308 623.398315,793.095459 623.662964,798.570618 
	C623.876587,802.991089 623.190674,808.058533 629.169556,810.415771 
	C622.481934,811.027954 616.121216,811.439941 609.269165,810.086121 
	C614.808289,806.485779 613.612915,801.243530 613.659668,796.374023 
	C613.698059,792.375488 613.361450,788.346497 613.749939,784.385864 
	C614.118713,780.626099 612.704163,778.268250 609.379211,777.110901 
	C606.300415,776.039185 603.201965,777.227966 600.206482,777.899231 
	C599.052429,778.157898 599.124878,779.836792 599.124451,780.999695 
	C599.122131,787.830627 599.128601,794.661682 599.171875,801.492432 
	C599.193420,804.894592 600.524231,806.578979 604.179504,805.208862 
	C605.458862,804.729248 606.951416,804.476990 607.561523,806.155518 
	C608.152466,807.780945 606.769104,808.496277 605.676636,809.249329 
	C598.380432,814.278931 589.589661,810.671143 588.485474,801.828491 
	C587.745972,795.906921 588.000244,789.864014 587.737183,783.878540 
	C587.661743,782.160889 588.191956,780.254883 586.362488,778.267700 
	C584.908142,782.289185 584.846497,787.409424 578.843079,786.339966 
	C574.757385,785.612183 575.838257,782.230286 575.728088,779.228638 
	C571.479065,780.047180 570.625305,783.178894 570.461731,786.165894 
	C570.143433,791.980225 570.505615,797.829163 570.294922,803.653198 
	C570.145996,807.769714 574.065186,808.057861 576.864441,810.752319 
	C569.188660,810.752319 562.480835,810.752319 555.323425,810.752319 
	C561.492615,803.520142 561.380615,785.963501 555.558350,776.190125 
	C560.778931,773.346558 568.687195,773.581665 571.112671,776.822937 
	C574.809692,774.715393 578.594604,774.537781 582.966248,775.165771 
	C586.285522,775.642639 590.449402,774.388550 592.576050,770.612854 
	C593.311584,769.307068 593.986023,767.966980 594.719177,766.659912 
	C595.338928,765.555054 596.237610,764.842407 597.573853,765.162048 
	C599.001282,765.503601 599.162354,766.702454 599.204468,767.905823 
	C599.300781,770.658386 598.518494,774.055542 603.112305,773.686646 
	C607.264893,773.353149 612.950317,776.453369 613.961731,768.805725 
	C614.192688,767.059326 615.335632,765.433533 616.253174,763.432251 
z"/>
<path fill="#000000" opacity="1.000000" stroke="none" 
	d="
M297.282837,781.247070 
	C295.655243,782.620972 293.596191,782.919067 292.636932,785.352905 
	C298.190430,788.685059 299.716766,794.476562 300.800751,800.418579 
	C301.401031,803.709045 302.545197,806.089783 306.402649,806.137329 
	C307.524811,806.151184 308.814178,806.570557 308.951599,808.047485 
	C309.084625,809.477173 307.921417,809.972412 306.890442,810.542053 
	C301.045288,813.771118 293.145874,811.038574 289.951080,804.647522 
	C288.142242,801.028931 287.486237,797.069336 286.624634,793.171692 
	C286.228149,791.378113 285.890289,789.493652 284.468567,788.209717 
	C282.579010,786.503357 280.297455,784.982666 277.734924,785.861389 
	C275.385345,786.667114 276.187805,789.246826 275.944641,791.147034 
	C275.839325,791.970154 275.889038,792.811768 275.831940,793.642517 
	C275.127167,803.900391 275.230896,804.186951 282.521454,810.743042 
	C274.364990,810.743042 266.788971,810.743042 259.212921,810.743042 
	C266.199463,806.412659 264.624268,799.573608 264.670105,793.279785 
	C264.718597,786.615112 264.668671,779.949768 264.675354,773.284729 
	C264.680695,767.957153 265.396851,762.375122 259.253357,759.825195 
	C259.956726,758.089294 260.994934,757.932007 261.978851,757.987976 
	C270.940338,758.497437 279.970673,756.869019 288.879242,758.761169 
	C293.813080,759.809143 298.684265,761.038940 301.068970,766.309265 
	C303.567749,771.831726 302.586700,776.122986 297.282837,781.247070 
M282.038300,782.685974 
	C289.326477,780.854126 291.286194,777.215332 289.774506,768.368408 
	C288.972198,763.673035 286.105835,761.131226 281.500122,760.438110 
	C278.109253,759.927856 276.042389,761.001953 276.112762,764.862732 
	C276.194183,769.327209 276.215546,773.798706 276.056946,778.259827 
	C275.922119,782.052979 277.660461,783.363892 282.038300,782.685974 
z"/>
<path fill="#000000" opacity="1.000000" stroke="none" 
	d="
M351.297180,780.030029 
	C349.793701,778.706299 348.528656,777.679443 347.175659,776.581299 
	C354.775757,772.702332 362.117645,773.031067 363.703979,777.178955 
	C369.784210,773.048706 376.599731,773.333069 381.495483,777.921265 
	C387.997070,784.014465 389.131805,796.761230 383.882812,804.739380 
	C379.545532,811.331787 372.325287,813.390625 363.468964,810.085022 
	C363.469635,816.503479 361.107422,823.057434 368.371582,827.770569 
	C362.283356,827.770569 356.195099,827.770569 349.217163,827.770569 
	C353.495209,824.344482 352.793274,820.125244 352.772491,816.050720 
	C352.723297,806.406677 352.709717,796.762390 352.658264,787.118408 
	C352.645905,784.801941 352.842743,782.435913 351.297180,780.030029 
M365.213440,807.101685 
	C368.939117,809.930359 372.173950,808.777039 373.788818,805.001038 
	C377.047943,797.380371 376.614014,789.417908 374.129089,781.641724 
	C373.371613,779.271423 371.121613,778.152405 368.515625,778.263184 
	C366.044586,778.368164 364.061737,779.752686 363.796661,782.010071 
	C362.833466,790.212097 361.540100,798.485779 365.213440,807.101685 
z"/>
<path fill="#000000" opacity="1.000000" stroke="none" 
	d="
M691.770264,798.854675 
	C691.748596,794.047668 691.581299,789.711304 691.755188,785.388611 
	C691.908569,781.574768 691.558655,778.104004 686.837341,775.311157 
	C691.857483,774.697937 695.670227,774.076294 699.507568,773.813110 
	C702.550964,773.604370 702.263367,776.072632 702.274475,778.037231 
	C702.315125,785.199036 702.375244,792.362061 702.279175,799.522705 
	C702.225159,803.547668 701.882080,807.567627 706.199219,810.529297 
	C694.020508,810.529297 681.841797,810.529297 668.453003,810.529297 
	C673.535645,807.069763 672.885742,802.686707 672.850525,798.442383 
	C672.780090,789.948364 672.800232,781.453613 672.710815,772.959839 
	C672.654480,767.612488 674.057617,761.811218 667.445618,758.320435 
	C667.750244,757.964905 668.054932,757.609436 668.359558,757.253906 
	C673.128967,756.746521 677.898376,756.239075 683.305481,755.663818 
	C683.305481,763.573914 683.307068,770.858337 683.305054,778.142761 
	C683.302979,785.637817 683.279785,793.132935 683.301453,800.627930 
	C683.310974,803.932129 682.776672,808.262451 687.431396,808.249512 
	C692.315430,808.235962 691.945740,803.899231 691.786011,800.330505 
	C691.771118,799.997864 691.776794,799.664368 691.770264,798.854675 
z"/>
<path fill="#000000" opacity="1.000000" stroke="none" 
	d="
M482.819946,785.999817 
	C482.788147,780.511475 482.611328,775.517944 482.774109,770.535522 
	C482.928558,765.808777 482.546722,761.507507 477.379425,759.625305 
	C477.612213,758.987488 477.745911,758.425171 477.824768,758.432800 
	C488.619873,759.471252 499.607117,755.804810 510.284210,759.765686 
	C514.509277,761.333130 517.989075,763.605469 519.362610,768.241150 
	C521.728455,776.226074 516.803345,784.501526 507.992920,786.886780 
	C505.288239,787.619141 502.396606,788.192383 499.631256,788.049805 
	C495.026367,787.812439 493.708954,789.926514 494.182617,794.028442 
	C494.277222,794.847900 494.217773,795.692078 494.163086,796.520508 
	C493.798828,802.039551 493.710846,807.419617 500.811310,809.831970 
	C492.781830,811.535461 485.168304,811.070984 477.196594,810.536011 
	C487.361420,804.185791 481.162109,794.473450 482.819946,785.999817 
M494.090057,770.579590 
	C494.106049,774.239197 494.214478,777.901306 494.112640,781.557617 
	C494.005585,785.401794 495.778534,786.053406 499.147369,785.143799 
	C507.336823,782.932434 511.233795,769.644043 505.324219,763.441101 
	C503.029358,761.032288 500.011627,759.923340 496.678711,760.842590 
	C493.309967,761.771729 494.364136,764.786133 494.101715,767.123840 
	C494.009521,767.945190 494.086578,768.785522 494.090057,770.579590 
z"/>
<path fill="#000000" opacity="1.000000" stroke="none" 
	d="
M306.917084,774.849121 
	C311.045197,774.195557 314.993591,773.817688 318.948853,773.536316 
	C321.947357,773.322998 321.960693,775.499756 321.982544,777.570862 
	C322.059906,784.900757 322.136200,792.230774 322.175964,799.560974 
	C322.196228,803.294128 323.242096,806.507263 327.584381,806.402466 
	C331.536713,806.307007 333.486908,803.376526 333.634155,799.690857 
	C333.860138,794.035400 333.554962,788.359985 333.724213,782.700562 
	C333.817444,779.583191 330.714111,778.444214 329.771606,775.162354 
	C334.706726,774.563477 339.413391,773.974792 344.304169,774.208557 
	C344.304169,782.478149 344.266602,790.257629 344.318420,798.036438 
	C344.348969,802.623474 343.291168,807.792236 350.841827,808.905823 
	C342.134888,812.634460 335.330841,811.665161 333.733978,807.046448 
	C329.472565,811.389099 324.376495,812.752197 318.682404,810.788879 
	C314.229492,809.253540 311.421173,806.243103 311.624847,801.091003 
	C311.749756,797.930725 311.560638,794.759399 311.609406,791.594543 
	C311.701813,785.599792 311.633087,779.674377 306.917084,774.849121 
z"/>
<path fill="#000000" opacity="1.000000" stroke="none" 
	d="
M389.518402,798.003906 
	C392.494110,791.807800 398.424652,792.222839 403.420074,790.986938 
	C405.940369,790.363403 407.908020,789.941467 407.724670,786.767639 
	C407.527557,783.356323 408.491058,779.506287 404.109283,777.849426 
	C401.083099,776.705200 399.291260,778.145813 399.851898,781.338989 
	C400.143585,783.000244 400.627289,784.682434 399.880463,786.230774 
	C398.704803,788.668091 396.329376,789.272644 393.957764,788.954590 
	C391.595428,788.637756 390.861145,786.606201 390.849457,784.464050 
	C390.825775,780.121582 393.255249,777.325439 396.939026,775.508057 
	C402.615021,772.707764 408.349579,773.733276 413.866058,775.858887 
	C417.140808,777.120789 418.285248,780.206726 418.314575,783.608643 
	C418.359039,788.768799 418.319427,793.929626 418.365265,799.089722 
	C418.423462,805.644836 418.712830,805.943420 424.588409,806.038086 
	C422.908386,812.323914 416.377014,813.123413 408.420013,807.892761 
	C403.425262,811.507996 397.939972,813.103577 392.304047,809.486023 
	C388.211212,806.858948 387.913330,802.729248 389.518402,798.003906 
M404.142609,806.473206 
	C409.825134,803.784546 407.263245,799.147949 407.631470,794.619507 
	C402.996399,795.632568 399.834137,797.117798 399.395569,801.541016 
	C399.111694,804.403748 400.159149,806.431580 404.142609,806.473206 
z"/>
<path fill="#000000" opacity="1.000000" stroke="none" 
	d="
M727.574341,811.418579 
	C716.163696,811.395874 709.648499,806.704163 707.682312,797.414124 
	C705.577087,787.466980 709.598755,779.641968 718.933289,775.523132 
	C728.437378,771.329407 739.577942,775.933105 743.187561,785.546021 
	C747.235107,796.325134 742.223877,807.488220 731.877075,810.649536 
	C730.618286,811.034119 729.276428,811.146851 727.574341,811.418579 
M732.723145,796.172058 
	C732.847656,791.694885 732.803772,787.241760 731.789856,782.830383 
	C731.156982,780.076843 730.232788,777.739014 727.035522,777.236572 
	C723.628540,776.701233 721.557068,778.611694 720.497314,781.402893 
	C717.700623,788.769531 717.561951,796.290588 720.250122,803.728394 
	C721.181152,806.304321 722.940796,808.555847 725.996216,808.463562 
	C729.058289,808.370972 730.604797,806.044067 731.399963,803.369690 
	C732.008789,801.321716 732.273071,799.171204 732.723145,796.172058 
z"/>
<path fill="#000000" opacity="1.000000" stroke="none" 
	d="
M540.331421,774.049805 
	C551.112915,777.796814 556.326233,785.378784 554.878662,794.722595 
	C553.064331,806.434509 545.678467,812.297424 534.053162,811.254028 
	C524.035095,810.354858 517.211914,801.878601 517.739441,790.987793 
	C518.211304,781.245300 526.764587,773.756897 537.441040,773.757507 
	C538.268860,773.757568 539.096741,773.877991 540.331421,774.049805 
M542.998901,802.225403 
	C544.222168,795.943665 543.991516,789.686157 542.804382,783.420593 
	C542.150513,779.970093 540.597412,777.331848 536.781311,777.254456 
	C532.890198,777.175537 531.117004,780.111511 530.522949,783.297485 
	C529.395203,789.345947 528.722961,795.483887 530.322510,801.613586 
	C531.112427,804.640381 532.143860,807.412964 535.766907,807.925293 
	C539.602905,808.467651 541.678223,806.424072 542.998901,802.225403 
z"/>
<path fill="#000000" opacity="1.000000" stroke="none" 
	d="
M632.946777,801.696411 
	C629.682373,793.903320 629.547974,786.536316 635.255554,780.405579 
	C640.679382,774.579651 647.558411,771.991028 655.606873,774.692200 
	C663.352783,777.291931 668.268738,784.650757 668.072693,793.181885 
	C667.884094,801.388611 663.046082,808.035217 655.463074,810.505310 
	C647.723267,813.026367 639.291077,810.471191 634.485840,804.127991 
	C633.986389,803.468750 633.588440,802.732483 632.946777,801.696411 
M651.642273,777.570923 
	C648.642761,776.638489 645.700562,776.848999 644.450745,780.016052 
	C641.172791,788.322083 640.853638,796.884644 644.546692,805.088379 
	C646.635010,809.727478 651.871094,809.656860 654.392944,805.444580 
	C658.240112,799.019043 657.087769,783.956299 651.642273,777.570923 
z"/>
<path fill="#000000" opacity="1.000000" stroke="none" 
	d="
M463.105347,801.570312 
	C460.422119,809.067322 454.699402,812.241516 446.432556,811.055664 
	C443.653107,810.656982 440.909149,809.574402 438.442688,811.672424 
	C436.450867,807.812744 436.234039,803.739380 437.584839,798.752258 
	C439.750488,799.572327 440.006348,801.809692 441.045685,803.336365 
	C443.598755,807.086670 446.980591,808.586426 451.358246,807.473633 
	C453.523224,806.923279 455.465332,805.816406 455.576996,803.195068 
	C455.681702,800.737488 453.902069,799.744141 451.935944,799.050842 
	C449.428925,798.166931 446.891449,797.369812 444.375671,796.510193 
	C438.686462,794.566223 436.684814,791.810181 436.637390,785.895081 
	C436.595093,780.618042 439.360809,776.606567 444.365448,774.891113 
	C447.405090,773.849182 450.530365,773.311096 453.628845,774.653503 
	C455.349060,775.398804 457.151001,775.343079 459.181091,775.422607 
	C460.551788,778.608215 460.644104,781.664490 458.960541,784.722412 
	C456.663605,784.460144 456.292480,782.656189 455.484802,781.262329 
	C454.254517,779.139160 452.524750,777.628418 450.036804,777.311462 
	C446.955963,776.919128 443.703979,776.733704 442.833374,780.694458 
	C442.045776,784.277771 444.692841,785.685852 447.509644,786.649597 
	C449.710449,787.402527 451.975433,787.965698 454.191223,788.677490 
	C460.981079,790.858521 463.125336,793.858887 463.105347,801.570312 
z"/>
<path fill="#000000" opacity="1.000000" stroke="none" 
	d="
M431.882355,771.649170 
	C431.402130,772.776733 431.144409,773.586182 430.712494,774.288513 
	C429.828033,775.726501 428.823212,777.090942 426.878510,777.075562 
	C425.990906,777.068604 425.257629,776.722229 424.980347,775.785645 
	C424.328766,773.584656 426.090576,772.920166 427.420776,771.989014 
	C428.692108,771.099060 429.791229,770.125305 429.393494,768.420959 
	C428.722656,767.050476 427.317200,767.382812 426.316986,766.877014 
	C423.874878,765.641968 422.233124,763.930481 422.788147,760.968811 
	C423.284241,758.321594 425.064026,756.929260 427.655731,756.758606 
	C430.505341,756.570984 432.283997,758.131104 433.399902,760.675110 
	C435.083435,764.513184 432.902252,767.803101 431.882355,771.649170 
z"/>
<path fill="#000000" opacity="1.000000" stroke="none" 
	d="
M693.704956,765.656433 
	C690.284485,763.141724 689.502930,760.210266 692.201416,757.407898 
	C694.607544,754.909241 697.683472,755.332520 700.285217,757.510986 
	C702.101379,759.031799 702.732910,761.122620 701.699341,763.343262 
	C700.090393,766.800049 697.181641,766.741821 693.704956,765.656433 
z"/>
</svg>